<svg xmlns="http://www.w3.org/2000/svg" version="1" width="8.672" height="18.944" viewBox="0 0 8.672 18.944"><path d="M6.275 3.356h2.398V0H5.795C2.655.18 1.54 2.387 1.948 6.114H0v3.518h1.96v9.312h3.836V9.632h2.857V6.114H5.787c-.022-1.045-.037-2.405.488-2.758z" fill="#88b6d1"/><path d="M-7.404 12.097V7.44H-9.38V3.948h1.946l-.03-.486c-.038-.64-.027-1.548.024-1.956.14-1.127.505-1.974 1.112-2.588.526-.533 1.19-.856 2.058-1.005.355-.06.577-.068 1.967-.068h1.566V1.16H-3.14l-.083.09c-.113.123-.22.36-.283.626-.067.285-.132 1.21-.117 1.683l.01.37 1.44.01 1.436.008V7.44h-2.857V16.753h-3.809v-4.656z" fill="#fff"/></svg>